<svg width="75" height="68" viewBox="0 0 75 68" fill="none" xmlns="http://www.w3.org/2000/svg">
<path d="M2.51001 3.08098C3.64582 5.74803 4.90443 8.29786 6.28295 10.8509C7.42739 13.1582 8.56031 15.9452 10.313 17.9072C11.2464 19.0095 13.311 17.9792 12.8659 16.5286C12.8659 16.5286 12.8688 16.4087 12.7489 16.4058C12.9974 16.0518 13.243 15.8176 13.6114 15.4667C13.7313 15.4695 13.974 15.3556 14.0939 15.3585C14.3366 15.2443 14.5822 15.0102 14.8279 14.776C21.22 18.4092 27.6178 21.8027 33.5159 26.0241C35.2858 27.2665 36.933 28.6261 38.4545 30.2224C32.2464 33.9128 25.0213 39.9789 26.1588 47.5655C27.7184 57.5621 38.5208 52.4222 42.2425 47.3521C46.8265 41.3428 46.7135 36.0605 42.6431 30.6832C46.778 28.3828 51.3751 26.8132 55.8066 27.1598C66.4708 27.7761 68.0389 37.4129 65.0876 45.3813C61.9985 44.1071 58.4098 43.6609 55.2744 44.3055C49.6093 45.3693 44.3652 53.8825 48.2015 59.0142C52.0407 64.026 62.3359 55.0343 64.4468 52.0853C65.0665 51.2602 65.689 50.3153 66.1917 49.3674C66.3088 49.4902 66.4289 49.4931 66.5457 49.6159C75.0474 55.3397 67.4366 62.4762 61.24 65.687C60.2691 66.1436 61.0768 67.4829 62.0448 67.1462C68.4669 64.5407 76.0373 59.0832 71.9018 51.4245C70.8657 49.5997 69.3442 48.0033 67.4514 46.8779C70.2482 40.3457 70.4326 32.6706 64.5519 27.73C57.495 21.8009 48.0548 25.1735 41.0072 28.8438C40.8902 28.7212 40.8902 28.7212 40.7731 28.5982C34.3418 21.6043 25.0889 17.1823 16.7982 12.6635C17.418 11.8385 18.0407 10.8933 18.6604 10.0685C19.0346 9.47733 18.9349 8.63501 18.4667 8.144C14.473 4.56834 9.61968 1.81195 4.24345 0.842836C2.93317 0.451382 1.94212 1.74725 2.51001 3.08098ZM42.2935 35.2342C44.8223 39.8545 41.4749 44.3337 38.2763 47.6165C34.0924 51.9556 27.5256 50.5979 29.0092 43.7942C29.8123 40.3338 32.9965 37.6505 35.5696 35.4326C36.9175 34.2651 38.5051 33.1031 40.2099 32.0642C41.0265 33.0437 41.7201 34.1405 42.2935 35.2342ZM63.825 47.9905C63.825 47.9905 63.8221 48.1104 63.825 47.9905C62.0685 51.188 59.6123 53.5287 56.5684 55.3754C55.2291 56.1832 53.7728 56.8681 52.2052 57.1904C48.0991 58.2916 50.2933 51.8649 51.1731 50.2062C53.8009 45.7098 59.5485 46.2079 63.825 47.9905ZM15.3144 9.50812C15.3115 9.62804 15.1916 9.62516 15.1887 9.74508C14.829 9.73643 14.4634 9.96782 14.2121 10.4415C13.8321 11.2723 13.3323 12.1002 12.8324 12.9284C12.5839 13.2824 11.8471 13.9846 12.087 13.9903C11.9671 13.9875 11.8443 14.1045 11.8414 14.2244C11.1535 12.8882 10.2259 11.5458 9.53807 10.2096C8.61905 8.5077 7.70292 6.68584 6.78679 4.86379C9.76462 5.77488 12.7252 7.40588 15.3144 9.50812Z" fill="#CACACA"/>
</svg>
