<svg width="46" height="44" viewBox="0 0 46 44" fill="none" xmlns="http://www.w3.org/2000/svg">
<path d="M31.7379 1.86269C31.4044 1.9091 31.0688 1.97111 30.7407 2.04734C27.3528 2.83509 24.5143 5.35392 22.7201 9.15528C19.5338 5.62368 14.8154 3.72776 10.6119 4.31258C9.68815 4.44109 8.78949 4.68787 7.94134 5.04627C5.32034 6.15374 3.38264 8.48926 2.62582 11.4548C1.78695 14.7402 2.51234 18.351 4.51908 20.878C7.27511 24.3487 11.4195 26.1246 15.4269 27.8417C17.4854 28.7243 19.6141 29.6357 21.4874 30.7594C22.0452 31.0934 22.7487 31.5322 23.3692 32.0306C22.7805 32.7978 21.7425 35.2202 21.7333 35.2488C21.4334 36.1995 21.1134 38.1658 21.8158 39.5059C22.1158 40.0775 22.565 40.4593 23.1522 40.6406C23.4532 40.7332 23.7601 40.7593 24.0638 40.717C25.3695 40.5354 26.4067 39.1297 27.0476 37.9829C28.2193 35.8835 28.1569 33.8598 26.861 31.9651C28.3797 30.1517 30.0667 28.4279 31.6989 26.7597C34.5069 23.8903 37.4101 20.9227 39.559 17.4016C40.6087 15.6809 43.7629 9.70473 40.2952 5.02837C38.4619 2.55565 35.2628 1.3723 31.7379 1.86269ZM24.9757 36.1179C24.7828 36.6565 24.5679 37.0559 24.3239 37.3259C24.2758 36.5723 24.4587 35.8047 24.5855 35.3787C24.6211 35.2591 24.8846 34.6932 25.0777 34.3123C25.2357 34.8924 25.2018 35.4868 24.9757 36.1179ZM17.9416 8.59287C18.8443 9.14748 19.6652 9.80162 20.3812 10.5356C20.4664 10.6231 20.6021 10.7917 20.7599 10.9866C21.6703 12.1151 22.6318 13.2069 23.4916 13.0873C23.9182 13.0279 24.2376 12.6778 24.4408 12.046C25.739 8.01594 28.3356 5.35959 31.7521 4.56583C31.9506 4.51937 32.1533 4.48245 32.3548 4.45442C35.0019 4.08614 37.5452 5.31172 38.6841 7.50365C40.1847 10.3934 38.98 14.2328 35.0012 19.2408C33.2929 21.3916 31.3433 23.383 29.4584 25.3091C27.9787 26.8203 26.4501 28.382 25.0427 30.0147C23.3781 28.6169 21.3002 27.541 19.6603 26.7534C18.6874 26.2858 17.6443 25.8413 16.54 25.3705C11.1111 23.0565 4.95846 20.4337 4.9695 13.9546C4.97568 10.2501 7.35337 7.52616 11.0269 7.01507C11.2969 6.97752 11.5749 6.95189 11.854 6.94012C13.9008 6.85124 16.0626 7.43845 17.9416 8.59287Z" fill="#3D3D3D"/>
</svg>
