<svg width="286" height="97" viewBox="0 0 286 97" fill="none" xmlns="http://www.w3.org/2000/svg">
<g clip-path="url(#clip0)">
<path d="M271.738 6.86269C271.404 6.9091 271.069 6.97111 270.741 7.04734C267.353 7.83509 264.514 10.3539 262.72 14.1553C259.534 10.6237 254.815 8.72776 250.612 9.31258C249.688 9.44109 248.79 9.68787 247.941 10.0463C245.32 11.1537 243.383 13.4893 242.626 16.4548C241.787 19.7402 242.512 23.351 244.519 25.878C247.275 29.3487 251.42 31.1246 255.427 32.8417C257.485 33.7243 259.614 34.6357 261.487 35.7594C262.045 36.0934 262.749 36.5322 263.369 37.0306C262.781 37.7978 261.743 40.2202 261.733 40.2488C261.433 41.1995 261.113 43.1658 261.816 44.5059C262.116 45.0775 262.565 45.4593 263.152 45.6406C263.453 45.7332 263.76 45.7593 264.064 45.717C265.37 45.5354 266.407 44.1297 267.048 42.9829C268.219 40.8835 268.157 38.8598 266.861 36.9651C268.38 35.1517 270.067 33.4279 271.699 31.7597C274.507 28.8903 277.41 25.9227 279.559 22.4016C280.609 20.6809 283.763 14.7047 280.295 10.0284C278.462 7.55565 275.263 6.3723 271.738 6.86269ZM264.976 41.1179C264.783 41.6565 264.568 42.0559 264.324 42.3259C264.276 41.5723 264.459 40.8047 264.586 40.3787C264.621 40.2591 264.885 39.6932 265.078 39.3123C265.236 39.8924 265.202 40.4868 264.976 41.1179ZM257.942 13.5929C258.844 14.1475 259.665 14.8016 260.381 15.5356C260.467 15.6231 260.602 15.7917 260.76 15.9866C261.67 17.1151 262.632 18.2069 263.492 18.0873C263.918 18.0279 264.238 17.6778 264.441 17.046C265.739 13.0159 268.336 10.3596 271.752 9.56583C271.951 9.51937 272.153 9.48245 272.355 9.45442C275.002 9.08614 277.545 10.3117 278.684 12.5037C280.185 15.3934 278.98 19.2328 275.001 24.2408C273.293 26.3916 271.343 28.383 269.458 30.3091C267.979 31.8203 266.45 33.382 265.043 35.0147C263.378 33.6169 261.3 32.541 259.66 31.7534C258.687 31.2858 257.644 30.8413 256.54 30.3705C251.111 28.0565 244.959 25.4337 244.97 18.9546C244.976 15.2501 247.353 12.5262 251.027 12.0151C251.297 11.9775 251.575 11.9519 251.854 11.9401C253.901 11.8512 256.063 12.4385 257.942 13.5929Z" fill="#3D3D3D"/>
</g>
<path opacity="0.8" d="M52.0546 79.6684C52.6837 80.0556 53.2317 80.414 53.7844 80.8105C54.0369 80.973 54.2753 81.021 54.5425 80.988C54.6951 80.9691 54.843 80.9121 54.9909 80.855C55.6208 80.6221 56.2506 80.3893 56.8282 80.0466C61.0758 77.739 65.0378 75.0018 68.7713 71.983C69.9696 71.0211 71.0775 69.9542 72.1425 68.8539C72.6964 68.3205 73.1598 67.682 73.5423 67.0148C73.8959 66.4286 74.0254 65.909 73.9593 65.3747C73.8932 64.8405 73.6363 64.3298 73.1458 63.8093C72.3838 62.9737 71.3779 62.672 70.3098 62.4941C68.803 62.2155 67.2578 62.2517 65.7219 62.3642C62.0731 62.6217 58.429 62.9175 54.7754 63.1369C52.8151 63.2631 50.8265 63.1604 48.8716 62.7048C47.9944 62.5033 47.1364 62.1445 46.3118 61.7429C45.6111 61.4033 45.2591 60.7495 45.16 59.9481C45.042 58.9941 45.1576 58.0499 45.5165 57.1919C46.0094 55.8524 46.5453 54.5463 47.2479 53.3358C51.3489 46.3971 56.8933 40.7909 63.7284 36.536C65.2368 35.5746 66.8116 34.8374 68.5339 34.3531C69.0969 34.206 69.6598 34.0589 70.1941 33.9928C70.9955 33.8937 71.7728 33.9138 72.5691 34.0865C73.289 34.2687 73.7272 34.6794 73.8169 35.4044C73.8924 36.015 73.9774 36.7019 73.9384 37.3266C73.8365 38.6953 73.458 40.0206 72.9937 41.2791C72.764 41.9274 72.4961 42.5805 72.2281 43.2335C72.1707 43.3956 72.1133 43.5577 72.1321 43.7103C72.151 43.863 72.2415 43.968 72.3748 44.1065C72.9276 44.5031 73.4469 44.9425 74.0043 45.3772C74.1381 45.2057 74.2813 45.1105 74.3053 44.9913C74.7459 43.542 75.2629 42.0833 75.6225 40.6053C75.8527 39.647 75.9589 38.6265 75.9507 37.6201C75.9271 37.4293 75.9416 37.2338 75.918 37.043C75.6396 34.7916 74.1014 33.0059 71.8799 32.2733C70.8263 31.8999 69.7724 31.8366 68.6658 31.9734C68.3605 32.0112 68.017 32.0537 67.6783 32.1343C65.4981 32.6752 63.5271 33.6551 61.656 34.8164C56.9784 37.7196 53.0151 41.3868 49.5043 45.5792C47.3358 48.0945 45.4246 50.8105 44.0948 53.8421C43.6404 54.8669 43.3052 55.9157 43.0844 56.9503C42.9692 57.5845 42.9302 58.2092 43.001 58.7816C43.1615 60.0791 43.842 61.196 45.0045 62.137C46.5576 63.4172 48.3594 64.2017 50.3429 64.5763C53.3135 65.1 56.3325 65.0752 59.3279 64.8597C62.2469 64.6537 65.1184 64.376 67.9993 64.1747C69.2633 64.0571 70.5033 64.0587 71.7763 64.3274C71.6799 65.1142 71.6366 65.3908 71.0587 66.0434C70.0748 67.1725 69.0909 68.3015 67.9354 69.2968C64.7936 72.0875 61.2946 74.4962 57.6957 76.7236C56.0107 77.8231 54.3257 78.9226 52.3316 79.4017C52.2934 79.4064 52.2647 79.4875 52.0546 79.6684ZM76.951 44.5091C76.9695 44.9717 76.9357 45.3246 76.9781 45.6681L77.0253 46.0497C77.0631 46.3549 77.1056 46.6984 77.2771 46.8321C77.5297 46.9946 77.6343 47.2141 77.6626 47.4431C77.6862 47.6339 77.6382 47.8723 77.6618 48.0631C77.572 51.0962 77.4059 54.1388 77.3972 57.2007C77.3971 60.9589 77.5925 64.7316 78.0503 68.4332C78.1636 69.349 78.2816 70.303 78.4331 71.2141C78.6793 72.5785 79.04 73.9286 79.4007 75.2788C79.6238 76.1423 80.4102 76.5487 81.2497 76.4449C81.5931 76.4024 81.9987 76.236 82.3186 76.0027C81.509 75.0955 81.2053 73.8933 80.9779 72.6816C80.7317 71.3173 80.4426 69.9195 80.2632 68.4694C80.2113 68.0496 80.1976 67.6252 80.1456 67.2054C79.4161 59.7406 79.2542 52.1667 80.0892 44.5084C80.1183 44.1173 80.1903 43.7597 80.2576 43.364C84.5422 41.9817 88.7316 40.4562 93.0964 39.7226C93.1826 39.4795 93.2735 39.2745 93.288 39.079C93.3408 38.8787 93.3506 38.6451 93.327 38.4543C93.242 37.7674 92.7228 37.3279 91.9977 37.4176L91.7688 37.4459C91.244 37.5883 90.7003 37.5781 90.1802 37.7586C87.6325 38.4612 85.0514 39.2066 82.5084 39.9473C81.8738 40.142 81.2774 40.332 80.5665 40.5362C80.6098 40.2596 80.5862 40.0688 80.6436 39.9068C80.8845 38.0947 81.0918 36.3256 81.4137 34.5423C81.4617 34.3039 81.4762 34.1084 81.4526 33.9176C81.396 33.4597 81.1627 33.1398 80.7815 32.877C80.4432 32.6477 79.9806 32.6661 79.6182 32.556C79.5132 32.6465 79.4416 32.6941 79.4082 32.7369C78.4552 35.6831 77.8171 38.6679 77.2218 41.686C76.8878 41.8048 76.5919 41.9189 76.2579 42.0377C73.6335 43.0597 70.9709 44.0864 68.3512 45.1466C67.8693 45.3224 67.4731 45.5651 67.0435 45.8507C66.7906 45.9982 66.6997 46.2032 66.7327 46.4703L66.7469 46.5848C66.9176 47.3386 67.3987 47.7827 67.9514 48.1793C68.0754 48.2415 68.1564 48.2702 68.2709 48.256C68.4235 48.2371 68.5667 48.1419 68.7005 47.9704C68.863 47.7179 69.1065 47.494 69.3642 47.3847C71.7789 46.2336 74.3125 45.4166 76.951 44.5091ZM94.5613 64.9575C94.4374 64.8953 94.3182 64.8713 94.2371 64.8426C94.0519 64.2844 93.8666 63.7261 93.7147 63.125C93.2828 61.5124 92.932 59.9286 92.5382 58.3113C92.334 57.6004 92.1633 56.8466 91.921 56.1405C91.6264 55.3245 90.6783 54.5507 89.8628 54.5353C89.3954 54.5156 89.1047 54.3579 88.7998 54.0856C87.9328 53.3405 86.9316 53.0769 86.092 53.1807C85.4815 53.2562 84.9327 53.5178 84.5554 53.9132C84.0396 54.4419 83.5667 55.0041 83.2178 55.6284C81.5209 58.5116 80.8395 61.7729 80.9637 65.2833L81.0156 65.703C81.0675 66.1228 81.1576 66.5378 81.243 66.9147C81.4137 67.6685 81.6989 68.4081 82.7146 68.4762C82.791 68.4667 82.8814 68.5718 82.9625 68.6005C83.3818 68.8586 83.8968 68.9499 84.3547 68.8932C84.889 68.8271 85.3233 68.5797 85.5385 68.1269C85.902 67.3071 86.3513 66.5541 86.6767 65.739C87.4517 63.8609 88.1839 61.9494 88.9542 60.0331C89.0738 59.7471 89.2745 59.4898 89.4035 59.2801C90.4138 59.9301 90.6368 60.7936 90.8598 61.6571C91.0258 62.3727 91.2729 63.1171 91.5152 63.8232C91.9286 64.9732 92.5856 65.8992 93.992 66.3065C94.6738 66.4933 95.2698 66.6133 95.8422 66.5425C96.2619 66.4906 96.6675 66.3242 97.0208 66.0481C97.5842 65.5909 98.1 65.0622 98.53 64.4666C99.9345 62.6657 100.962 60.6401 101.657 58.4232C101.767 58.0609 101.877 57.6986 101.945 57.3028C101.94 57.2647 101.969 57.1836 101.959 57.1073C101.888 56.5349 101.088 55.704 100.554 55.7701L100.325 55.7984C100.058 55.8315 99.8147 55.7453 99.5475 55.7783L99.4712 55.7878C99.1112 57.5758 98.4605 59.206 97.6048 60.7454C96.7872 62.28 95.8839 63.7478 94.5613 64.9575ZM83.7773 65.4777L83.749 65.2487C83.3242 61.8143 85.3012 56.1843 87.2867 55.0089C87.4771 55.2953 87.5865 55.553 87.6195 55.8201C87.6431 56.0109 87.6286 56.2064 87.5377 56.4114C86.3417 59.2714 85.1504 62.1696 83.9591 65.0678C83.9016 65.2298 83.8395 65.3538 83.7773 65.4777ZM91.9464 62.2976C91.9606 62.4121 92.0129 62.5219 92.0223 62.5982C92.0129 62.5219 91.9606 62.4121 91.9464 62.2976ZM101.459 56.2006C101.521 56.0767 101.621 55.948 101.607 55.8335L101.376 53.9637C101.296 53.315 101.22 52.7044 101.106 52.0986C100.983 51.4164 100.426 50.9817 99.7442 50.7948C99.501 50.7086 99.2674 50.6988 99.0766 50.7224C98.6568 50.7743 98.3893 51.1173 98.3121 51.7468C98.2492 52.4907 98.2291 53.2681 98.2472 54.0407C98.2562 54.427 98.3034 54.8086 98.3506 55.1902C98.53 56.6403 98.8954 58.0287 99.4135 59.3981C99.6751 59.9469 99.9748 60.491 100.594 60.8018C101.128 61.0457 101.738 61.2802 102.272 61.5241C102.52 61.6485 102.792 61.6536 103.021 61.6253C103.288 61.5922 103.546 61.4829 103.751 61.2637C104.233 60.7779 104.72 60.3302 104.998 59.7535C105.658 58.5096 106.274 57.2322 106.81 55.9261C107.375 54.539 107.735 53.061 108.256 51.6404C108.606 50.7061 108.993 49.7671 109.385 48.8662C109.443 48.7041 109.619 48.566 109.787 48.3516C109.91 48.7238 110.024 49.0196 110.095 49.282C110.366 50.2172 110.518 51.1283 110.636 52.0823C110.824 53.6087 110.865 55.1921 110.901 56.7374C110.901 57.3574 110.723 57.8055 110.313 58.2438C106.578 62.1926 103.811 66.758 101.882 71.8396C101.279 73.5414 100.795 75.2673 100.592 77.0745C100.458 77.8661 100.438 78.6434 100.537 79.4448C100.575 79.7501 100.655 80.0888 100.736 80.4275C100.968 81.3674 101.459 82.1979 102.464 82.4996C103.428 82.768 104.329 82.8502 105.207 82.7416C106.466 82.5859 107.635 82.0151 108.662 80.9195C109.693 79.8621 110.425 78.5705 110.989 77.1834C111.793 75.2243 112.273 73.1503 112.595 71.057C113.172 67.2662 113.363 63.4844 113.316 59.6546C113.312 58.9964 113.489 58.5483 113.98 58.1388C114.897 57.4055 115.804 56.5959 116.721 55.8627C117.289 55.4437 117.9 55.0582 118.663 54.9638L118.816 54.9449L118.769 54.5633C118.754 54.4488 118.745 54.3725 118.697 54.3009C118.317 53.7281 117.812 53.4031 117.11 53.3736C116.996 53.3878 116.839 53.3685 116.724 53.3827C115.961 53.477 115.35 53.8626 114.744 54.2862C114.281 54.6147 113.818 54.9432 113.25 55.3622L113.127 54.37C113.094 53.7929 113.028 53.2586 112.957 52.6862C112.811 51.5033 112.584 50.2916 112.208 49.1369C111.904 48.2447 111.49 47.4047 110.752 46.7599C110.147 46.2536 109.503 46.062 108.893 46.1375C108.244 46.2178 107.676 46.6367 107.265 47.385C106.768 48.3763 106.356 49.4346 105.983 50.4881C105.466 51.9468 105.068 53.4295 104.508 54.8548C103.977 56.1991 103.284 57.4859 102.629 58.768C102.442 59.1397 102.089 59.4159 101.821 59.7589C101.388 59.0764 100.98 57.6546 100.876 56.8151C100.838 56.5098 100.853 56.3143 100.877 56.1951C101.073 56.2096 101.263 56.186 101.459 56.2006ZM110.776 61.6735C110.765 62.5272 110.707 63.3092 110.682 64.0484C110.482 67.1339 110.207 70.2288 109.497 73.2611C109.113 74.8583 108.653 76.465 107.903 77.9139C107.276 79.1149 106.559 80.2109 105.461 81.0441C105.037 81.3679 104.712 81.563 104.407 81.6008C103.911 81.6621 103.553 81.2801 103.292 80.4213C103.212 80.0826 103.136 79.782 103.093 79.4386C103.018 78.828 103.019 78.208 103.139 77.612C103.412 76.0671 103.724 74.5175 104.198 73.0253C105.458 69.1114 107.499 65.5657 110.04 62.3068C110.174 62.1353 110.308 61.9638 110.446 61.8304C110.48 61.7875 110.556 61.7781 110.776 61.6735ZM111.01 50.0988L111.081 50.6712L111.043 50.6759L110.972 50.1035L111.01 50.0988ZM138.224 24.4162C138.076 24.4733 137.924 24.4921 137.814 24.5445C134.411 26.4764 131.198 28.6947 128.538 31.6196C127.683 32.5389 126.919 33.5633 126.193 34.583C125.375 35.8077 124.801 37.1185 124.556 38.5823C124.504 38.7826 124.375 38.9922 124.284 39.1972C124.425 36.8938 125.386 34.954 126.752 33.1577C128.487 30.8898 130.545 29.0468 132.817 27.3709C135.161 25.6475 137.657 24.2152 140.253 22.9642C140.434 22.8643 140.621 22.8026 140.916 22.6885C140.811 23.089 140.468 23.1314 140.253 23.2742C139.565 23.6692 138.878 24.0641 138.186 24.4209C138.959 24.0929 139.694 23.7695 140.462 23.4033C140.51 23.4749 140.591 23.5036 140.634 23.537L140.289 24.5095C138.667 28.6233 137.25 32.828 136.114 37.1141C136.061 37.3143 136.009 37.5145 135.994 37.7101L136.008 37.8245C136.037 38.0535 136.17 38.192 136.451 38.2734C136.723 38.2785 136.971 38.4029 137.295 38.5177C137.472 38.3797 137.653 38.2797 137.844 38.2561C138.073 38.2278 138.273 38.2806 138.526 38.443C137.559 44.7229 137.064 51.0606 136.927 57.4703C136.555 57.5939 136.221 57.7127 135.92 57.7886C135.825 57.9554 135.806 58.1127 135.824 58.2654C135.857 58.5325 136.034 58.7044 136.324 58.8622C136.739 59.0821 136.896 59.4114 136.943 59.793C136.957 59.9075 136.938 60.0648 136.952 60.1793C136.97 61.262 136.983 62.3065 137.115 63.3749L137.2 64.0618C137.323 65.054 137.484 66.0414 137.644 67.0289C137.753 67.5966 138.072 67.9833 138.716 68.1749C139.326 68.4094 139.884 68.2241 140.6 68.3681L140.534 67.8339C140.515 67.6812 140.496 67.5286 140.458 67.5333C139.938 67.4039 139.896 67.0604 139.853 66.717L139.825 66.488C139.725 65.9967 139.626 65.5053 139.564 65.0092C139.343 63.2157 139.359 61.4701 139.333 59.6912C139.31 59.1904 139.634 58.9952 140.04 58.8288C141.844 58.0633 143.49 56.9685 144.966 55.74C149.735 51.7018 153.6 46.9233 156.945 41.7052C157.562 40.7379 158.054 39.7083 158.628 38.7075C158.422 38.9267 158.179 39.1505 158.016 39.4031C154.905 44.6309 151.193 49.3906 146.795 53.6153C144.995 55.3489 143.099 56.9394 140.88 58.105C140.474 58.2714 140.107 58.4331 139.701 58.5995C139.721 58.4421 139.788 58.3564 139.897 58.304C141.577 57.4764 143.071 56.4005 144.513 55.2148C146.967 53.129 149.121 50.8092 151.185 48.3843C155.307 43.4964 158.681 38.1973 161.045 32.2483C161.963 29.965 162.644 27.6337 162.566 25.125C162.571 24.8532 162.538 24.586 162.5 24.2808C162.17 21.6095 160.532 19.3325 157.925 18.2989C157.109 17.9736 156.189 17.7387 155.283 17.6183C153.943 17.4353 152.589 17.4479 151.253 17.6131C150.337 17.7263 149.431 17.9159 148.529 18.1437C141.268 19.8941 134.778 23.1765 129.101 28.0243C127.277 29.5672 125.672 31.3154 124.377 33.374C123.541 34.7561 122.904 36.1908 122.716 37.8025C122.673 38.3891 122.662 38.9328 122.729 39.467C122.894 40.8026 123.469 42.01 124.603 43.0321C125.999 44.293 127.719 45.0488 129.493 45.6043C129.617 45.6665 129.808 45.6429 129.998 45.6193C129.856 45.4045 129.722 45.266 129.699 45.0752C129.623 44.4646 129.314 44.1542 128.742 43.915C127.807 43.5656 126.94 43.1305 126.072 42.6954C125.21 42.2984 124.81 41.573 124.697 40.6571C124.598 39.5458 124.776 38.4777 125.154 37.4623C125.757 35.7605 126.737 34.2833 127.883 32.9017C130.591 29.7384 133.8 27.1719 137.37 25.0256C137.656 24.8352 137.938 24.6066 138.224 24.4162ZM139.37 56.5483C139.395 55.8091 139.367 55.2701 139.416 54.7217C139.752 45.5365 141.032 36.467 143.018 27.4652C143.239 26.4306 143.46 25.3959 143.599 24.3326C143.652 24.1323 143.662 23.8987 143.638 23.7079C143.596 23.3644 143.405 23.078 142.919 22.9057C142.8 22.8817 142.691 22.624 142.557 22.4855C142.424 22.347 142.3 22.2849 142.047 22.1224C143.197 21.709 144.304 21.2621 145.416 20.8534C146.27 20.554 147.086 20.2594 147.964 20.1508C148.231 20.1178 148.541 20.1182 148.813 20.1233L148.57 20.0371C148.641 19.9895 148.675 19.9467 148.713 19.9419C149.705 19.8192 150.731 19.6536 151.761 19.5262C153.826 19.3095 155.868 19.212 157.894 19.93C158.056 19.9874 158.261 20.0783 158.466 20.1692C160.01 20.753 160.729 21.8652 160.918 23.3916L160.974 23.8495C161.025 25.5093 160.76 27.1305 160.3 28.7372C159.304 32.2699 157.731 35.5253 155.871 38.6611C152.43 44.3559 148.303 49.5156 143.261 53.8587C142.349 54.6301 141.308 55.3012 140.349 56.0011C140.1 56.1868 139.805 56.3008 139.37 56.5483ZM158.628 38.7075C159.053 38.0738 159.388 37.335 159.608 36.6103C159.269 37.311 158.638 37.8539 158.628 38.7075ZM169.379 46.8313L169.077 44.389C168.936 43.2442 168.57 42.1659 167.98 41.154C167.376 40.0277 166.461 39.211 165.355 38.7279C164.697 38.4218 164.025 38.3112 163.414 38.3867C162.689 38.4764 161.993 38.795 161.401 39.3332C159.338 41.1381 158.267 43.4402 158.02 46.1441C157.991 46.5351 157.957 46.888 157.995 47.1933C158.141 48.3763 158.855 49.1403 160.123 49.6809C160.657 49.9248 161.22 50.0877 161.787 50.2887C161.772 50.4842 161.791 50.6369 161.767 50.7561C161.565 51.9434 161.554 53.107 161.696 54.2518C161.734 54.5571 161.772 54.8624 161.847 55.163C162.113 56.6799 163.137 57.4444 164.739 57.5561C164.897 57.5754 165.011 57.5612 165.126 57.5471C165.622 57.4857 166.018 57.243 166.314 56.8189C166.673 56.2709 167.031 55.7229 167.308 55.1462C168.107 53.4589 168.62 51.652 168.894 49.7971C168.985 49.2822 169.181 48.9867 169.701 48.8062C170.913 48.2688 172.116 47.6551 173.323 47.0796C173.505 46.9797 173.686 46.8798 173.829 46.7846C174.006 46.6465 174.106 46.5179 174.092 46.4034C174.078 46.2889 173.949 46.1886 173.744 46.0977C173.539 46.0068 173.372 45.9112 173.277 45.768C173.092 45.5198 172.858 45.5099 172.581 45.4667C172.462 45.4427 172.348 45.4568 172.233 45.471C171.966 45.504 171.67 45.6181 171.417 45.7656C170.725 46.1224 170.071 46.4745 169.379 46.8313ZM166.574 47.9532C166.083 47.4327 165.678 46.9791 165.24 46.5684C164.892 46.2627 164.492 46.1573 164.11 46.2045C163.729 46.2516 163.366 46.4515 163.108 46.8708C162.678 47.4665 162.415 48.1577 162.075 48.8583L161.922 48.8772C160.93 48.9999 160.544 48.6989 160.426 47.7449L160.407 47.5923C160.36 47.2107 160.389 46.8196 160.423 46.4668C160.784 44.3687 161.602 42.5241 163.077 40.9855C163.416 40.5949 163.808 40.314 164.242 40.0666C164.419 39.9285 164.567 39.8715 164.681 39.8573C164.91 39.829 165.044 39.9675 165.31 40.2444C165.91 41.0226 166.291 41.9054 166.523 42.8452C166.613 43.2603 166.703 43.6753 166.755 44.0951C166.901 45.2781 166.852 46.4465 166.684 47.5909C166.698 47.7054 166.631 47.7911 166.574 47.9532ZM164.17 55.4569C164.118 55.0371 164.037 54.6984 163.999 54.3931C163.981 54.2405 163.966 54.126 163.986 53.9687C164.049 52.9147 164.151 51.8561 164.252 50.7974C164.281 50.4064 164.525 50.1826 164.944 50.1306L166.127 49.9843C166.26 51.0528 165.23 54.0084 164.17 55.4569ZM168.497 43.4535L168.573 43.4441C168.554 43.6014 168.573 43.7541 168.596 43.9449C168.573 43.7541 168.516 43.6061 168.497 43.4535ZM163.75 55.5088L163.703 55.1272L163.741 55.1225L163.788 55.5041L163.75 55.5088ZM179.307 49.2453C179.375 48.2295 179.41 47.2566 179.302 46.3789C179.207 45.6157 179.003 44.9049 178.608 44.2176C177.775 42.8096 176.608 42.1403 175.387 42.2914C174.585 42.3905 173.755 42.8807 173.005 43.7095C171.777 45.0624 171.127 46.6927 170.967 48.5334C170.942 48.9626 170.918 49.3918 170.965 49.7734C171.121 51.0327 171.763 52.1543 172.845 53.0666C173.76 53.8834 174.77 54.5333 175.909 54.9735C176.157 55.0979 176.367 55.2269 176.614 55.3512C176.175 56.1805 175.768 56.9669 175.362 57.7533C174.276 59.941 173.277 62.1956 172.677 64.5556C172.438 65.4376 172.322 66.3818 172.278 67.2783C172.292 67.3928 172.268 67.512 172.282 67.6265C172.358 68.237 172.696 68.7764 173.354 69.0825C174.421 69.5703 175.494 69.7864 176.601 69.6495C177.059 69.5928 177.507 69.4599 177.989 69.284C181.119 67.967 183.197 65.6566 183.983 62.3048C184.161 61.5467 184.224 60.8028 184.134 60.0778C183.978 58.8185 183.379 57.7303 182.293 56.7798C181.769 56.3022 181.14 55.9151 180.587 55.5185C180.334 55.356 180.129 55.2652 179.801 55.1121C181.703 52.0098 183.648 48.9409 185.984 46.2111C185.845 46.0345 185.784 45.8484 185.655 45.7481C185.088 45.2371 184.588 44.9502 184.13 45.0069C183.786 45.0494 183.428 45.2874 183.061 45.759C182.793 46.1021 182.483 46.4117 182.22 46.7929C180.715 49.0325 179.248 51.2674 177.742 53.507C177.575 53.7214 177.451 53.9692 177.217 54.2694C176.435 53.9011 175.658 53.5711 174.953 53.1934C174.042 52.7248 173.514 51.899 173.396 50.945L173.382 50.8305C173.07 48.312 173.898 46.2336 175.746 44.5716C175.99 44.3477 176.328 44.2671 176.691 44.0672C176.824 44.5157 176.914 44.9308 176.971 45.3887C177.075 46.2282 177.059 47.0437 177.077 47.8164C177.282 47.9073 177.559 47.9505 177.573 48.065C177.791 48.8904 178.593 48.7913 179.307 49.2453ZM175.033 68.2548C174.933 68.0735 174.867 67.8492 174.843 67.6584C174.806 67.3531 174.844 67.0384 174.883 66.7237C175.079 65.8082 175.276 64.8928 175.592 64.0014C176.44 61.4557 177.611 59.0249 178.911 56.6944C179.007 56.5276 179.107 56.3989 179.208 56.2703C180.695 56.7062 181.59 57.6803 181.765 59.0922C181.808 59.4357 181.774 59.7886 181.745 60.1796C181.488 62.8071 180.279 64.9327 178.198 66.5849C177.142 67.4515 175.94 68.0652 175.033 68.2548ZM186.617 53.5717C186.57 52.8801 186.466 52.3506 186.481 51.845C186.607 50.0472 186.767 48.2065 186.931 46.4039C187.023 45.2689 187.196 44.1627 187.37 43.0564C187.394 42.9372 187.375 42.7846 187.36 42.6701C187.294 42.1359 186.971 41.711 186.542 41.3766C186.156 41.0756 185.789 40.9273 185.484 40.965C185.102 41.0122 184.787 41.2837 184.533 41.7412C183.749 43.233 183.056 44.8298 182.643 46.508C182.538 46.9085 182.48 47.3806 182.418 47.8145L182.427 47.8908C182.46 48.158 182.608 48.4109 182.837 48.3826L183.066 48.3543C183.256 48.3307 183.237 48.488 183.328 48.5931C183.423 48.7363 183.566 48.9511 183.685 48.9751C184.109 48.9613 184.214 49.1809 184.242 49.4098C184.261 49.5625 184.237 49.6817 184.256 49.8343C184.265 50.5306 184.273 51.2269 184.287 51.9614C184.305 52.1141 184.286 52.2714 184.305 52.4241C184.447 53.5689 184.984 54.471 186.104 55.0686C186.81 55.4463 187.258 55.6233 187.716 55.5667C188.059 55.5242 188.422 55.3244 188.918 54.953C189.448 54.5388 189.893 54.0576 190.294 53.5431C192.338 50.9655 193.954 48.0536 195.241 44.9886C195.327 44.7455 195.442 44.4214 195.485 44.1448C195.509 44.0256 195.5 43.9493 195.491 43.873C195.439 43.4532 195.096 43.1857 194.757 42.9563C194.59 42.8607 194.381 42.7317 194.228 42.7505C194.075 42.7694 193.97 42.8599 193.88 43.0649C193.703 42.8929 193.57 42.7545 193.351 42.5491C193.121 43.1974 192.925 43.8029 192.681 44.3367C191.624 46.7534 190.352 49.0028 188.833 51.1279C188.407 51.7617 187.896 52.3286 187.385 52.8955C187.218 53.1099 186.97 53.2955 186.617 53.5717ZM184.987 52.611L184.897 51.8859L184.935 51.8812L185.025 52.6062L184.987 52.611ZM185.232 32.9762C185.117 33.3004 184.959 33.5911 184.925 33.944C184.771 35.2028 184.698 36.4905 184.548 37.7875C184.534 37.983 184.514 38.1404 184.533 38.293C184.58 38.6746 184.828 38.799 185.286 38.7423L185.439 38.7234C185.906 39.0531 186.325 39.3112 186.787 39.6027C187.018 38.0244 187.225 36.5653 187.475 35.1396C187.49 34.9441 187.504 34.7485 187.485 34.5959C187.438 34.2143 187.281 33.885 186.938 33.6175C186.595 33.35 186.509 33.2831 185.232 32.9762ZM191.851 30.2978C191.869 30.7605 191.835 31.1133 191.878 31.4568L191.925 31.8384C191.963 32.1437 192.005 32.4871 192.177 32.6209C192.429 32.7834 192.534 33.0029 192.562 33.2318C192.586 33.4226 192.538 33.661 192.561 33.8518C192.472 36.885 192.306 39.9276 192.297 42.9894C192.297 46.7476 192.492 50.5203 192.95 54.2219C193.063 55.1377 193.181 56.0917 193.333 57.0029C193.579 58.3672 193.94 59.7174 194.3 61.0675C194.523 61.9311 195.31 62.3375 196.149 62.2336C196.493 62.1912 196.898 62.0248 197.218 61.7915C196.409 60.8843 196.105 59.682 195.878 58.4703C195.631 57.106 195.342 55.7082 195.163 54.2581C195.111 53.8384 195.097 53.4139 195.045 52.9941C194.316 45.5293 194.154 37.9555 194.989 30.2971C195.018 29.9061 195.09 29.5485 195.157 29.1527C199.442 27.7704 203.631 26.2449 207.996 25.5113C208.082 25.2682 208.173 25.0632 208.188 24.8677C208.24 24.6675 208.25 24.4338 208.227 24.243C208.142 23.5561 207.622 23.1167 206.897 23.2063L206.668 23.2346C206.144 23.377 205.6 23.3668 205.08 23.5474C202.532 24.2499 199.951 24.9953 197.408 25.7361C196.773 25.9308 196.177 26.1208 195.466 26.3249C195.509 26.0484 195.486 25.8576 195.543 25.6955C195.784 23.8835 195.991 22.1143 196.313 20.3311C196.361 20.0927 196.376 19.8971 196.352 19.7063C196.296 19.2484 196.062 18.9286 195.681 18.6658C195.343 18.4364 194.88 18.4549 194.518 18.3447C194.413 18.4352 194.341 18.4828 194.308 18.5257C193.355 21.4718 192.717 24.4566 192.121 27.4748C191.787 27.5936 191.492 27.7076 191.158 27.8264C188.533 28.8484 185.871 29.8751 183.251 30.9353C182.769 31.1111 182.373 31.3538 181.943 31.6394C181.69 31.787 181.599 31.9919 181.632 32.259L181.647 32.3735C181.817 33.1273 182.298 33.5715 182.851 33.968C182.975 34.0302 183.056 34.0589 183.171 34.0447C183.323 34.0259 183.466 33.9307 183.6 33.7591C183.763 33.5066 184.006 33.2827 184.264 33.1734C186.679 32.0224 189.212 31.2053 191.851 30.2978ZM200.799 51.8176C200.752 51.126 200.648 50.5965 200.662 50.091C200.789 48.2931 200.949 46.4524 201.113 44.6498C201.205 43.5148 201.378 42.4086 201.551 41.3024C201.575 41.1832 201.557 41.0305 201.542 40.916C201.476 40.3818 201.153 39.9569 200.724 39.6225C200.338 39.3215 199.971 39.1732 199.665 39.211C199.284 39.2582 198.969 39.5296 198.715 39.9871C197.931 41.4789 197.238 43.0757 196.825 44.7539C196.72 45.1544 196.662 45.6265 196.6 46.0604L196.609 46.1368C196.642 46.4039 196.79 46.6568 197.018 46.6285L197.247 46.6002C197.438 46.5766 197.419 46.734 197.509 46.839C197.605 46.9822 197.747 47.197 197.867 47.221C198.291 47.2073 198.396 47.4268 198.424 47.6557C198.443 47.8084 198.419 47.9276 198.438 48.0802C198.446 48.7765 198.455 49.4729 198.468 50.2074C198.487 50.36 198.468 50.5174 198.487 50.67C198.629 51.8148 199.166 52.7169 200.286 53.3145C200.992 53.6922 201.44 53.8692 201.898 53.8126C202.241 53.7701 202.604 53.5703 203.1 53.1989C203.63 52.7847 204.074 52.3036 204.476 51.789C206.52 49.2115 208.136 46.2995 209.423 43.2346C209.509 42.9914 209.624 42.6673 209.667 42.3907C209.691 42.2715 209.682 42.1952 209.672 42.1189C209.621 41.6991 209.277 41.4316 208.939 41.2022C208.772 41.1066 208.563 40.9776 208.41 40.9965C208.257 41.0153 208.152 41.1058 208.061 41.3108C207.885 41.1389 207.752 41.0004 207.533 40.795C207.303 41.4433 207.107 42.0488 206.863 42.5826C205.806 44.9993 204.534 47.2487 203.015 49.3739C202.589 50.0076 202.078 50.5745 201.567 51.1414C201.4 51.3558 201.152 51.5415 200.799 51.8176ZM199.169 50.8569L199.079 50.1318L199.117 50.1271L199.207 50.8522L199.169 50.8569ZM199.414 31.2221C199.299 31.5463 199.141 31.837 199.107 32.1899C198.953 33.4488 198.88 34.7364 198.73 36.0334C198.716 36.2289 198.696 36.3863 198.715 36.5389C198.762 36.9206 199.01 37.0449 199.468 36.9882L199.621 36.9694C200.088 37.299 200.507 37.5571 200.969 37.8486C201.2 36.2703 201.407 34.8112 201.657 33.3855C201.672 33.19 201.686 32.9945 201.667 32.8418C201.62 32.4602 201.463 32.1309 201.12 31.8634C200.777 31.5959 200.691 31.529 199.414 31.2221ZM217.429 45.1889C218.177 45.2901 218.854 45.4388 219.522 45.5112C219.794 45.5163 220.104 45.5167 220.371 45.4837C222.088 45.2713 223.482 44.014 224.176 42.7272C224.233 42.5651 224.295 42.4412 224.276 42.2886C224.257 42.1359 224.124 41.9974 223.919 41.9066C223.676 41.8204 223.443 41.5005 223.137 41.5383C223.061 41.5477 222.985 41.5572 222.88 41.6477L222.842 41.6524C222.803 41.6571 222.722 41.6284 222.641 41.5997C222.479 41.5422 222.308 41.4085 222.193 41.4226L222.155 41.4273C221.936 41.532 221.807 41.7417 221.635 41.9179C221.195 42.4372 220.765 43.0328 220.24 43.4852C219.82 43.8471 219.304 44.0658 218.694 44.1413L218.35 44.1838C217.807 44.1736 217.602 44.0827 217.555 43.7011C217.54 43.5866 217.526 43.4721 217.55 43.3529C217.551 42.7329 217.59 42.1082 217.553 41.4929C217.402 39.9618 217.251 38.4307 217.063 36.9042C216.968 36.141 216.521 35.654 215.82 35.3145C215.367 35.0993 215.005 34.9891 214.661 35.0316C214.127 35.0977 213.755 35.5312 213.577 36.2893C213.332 37.4431 213.24 38.5781 213.377 39.6847C213.5 40.6769 213.813 41.6455 214.318 42.5904C214.57 43.0629 214.741 43.5067 214.798 43.9646C214.85 44.3844 214.825 44.8136 214.724 45.2522C214.571 45.8911 214.537 46.554 214.302 47.1641C213.934 48.2558 213.522 49.3141 213.029 50.3436C212.786 50.8774 212.38 51.3538 211.73 51.7441C211.392 51.2047 211.026 50.7464 210.85 50.2645C210.313 48.7424 209.819 47.2537 209.397 45.7175C209.202 45.0829 209.007 44.4483 208.927 43.7996C208.894 43.5325 208.899 43.2606 208.909 43.027C208.962 42.5167 208.943 42.0541 208.887 41.5962C208.83 41.1382 208.735 40.685 208.602 40.2365C208.517 39.8597 208.393 39.4875 208.203 39.2011C207.979 38.9576 207.55 38.6232 207.398 38.642L207.36 38.6468C207.288 38.6944 207.212 38.7038 207.174 38.7085C206.868 38.7463 206.64 38.4646 206.411 38.4929L206.373 38.4976C206.225 38.5547 206.053 38.7309 205.957 38.8977C205.924 38.9406 205.938 39.0551 205.947 39.1314L206.15 40.7723C206.443 43.1382 206.888 45.4853 207.553 47.7277C207.885 48.8489 208.366 49.9131 208.879 50.9344C209.25 51.7409 209.874 52.3998 210.799 52.6729C211.4 52.831 212.034 52.9463 212.668 53.0616C212.868 53.1143 213.102 53.1242 213.293 53.1006C213.789 53.0392 214.185 52.7965 214.524 52.4058C215.035 51.839 215.537 51.1958 215.915 50.4904C216.675 49.1178 217.025 47.5635 217.261 46.0233C217.342 45.7421 217.385 45.4655 217.429 45.1889ZM222.925 43.8118C223.163 43.8598 223.278 43.8456 223.401 43.9078C224.255 44.2284 224.779 44.396 225.161 44.3488C225.695 44.2828 225.953 43.8634 226.398 43.0723C227.416 41.2803 227.905 39.2827 228.07 37.1701C228.08 36.9364 228.089 36.7027 228.061 36.4738C227.957 35.6342 227.519 34.9135 226.705 34.2781C226.062 33.7765 225.37 33.5133 224.722 33.5936C224.454 33.6266 224.192 33.6978 223.944 33.8835C223.371 34.2643 222.927 34.7454 222.526 35.26C221.804 36.3178 221.416 37.5669 221.152 38.8781C220.595 41.5815 220.592 44.3715 220.946 47.2335C221.045 48.0349 221.149 48.8744 221.362 49.6616C221.571 50.4107 221.942 51.2172 222.724 51.5854C223.834 52.1067 224.764 52.4179 225.642 52.3094C226.214 52.2386 226.763 51.977 227.322 51.4817C228.162 50.7578 228.959 50.0006 229.628 49.143C231.754 46.5942 233.37 43.6822 234.861 40.7081C234.928 40.6224 234.995 40.5366 235.019 40.4174C235.048 40.3364 235.077 40.2553 235.067 40.179C235.053 40.0645 234.958 39.9213 234.753 39.8305C234.629 39.7683 234.467 39.7109 234.376 39.6058C234.033 39.3383 233.628 39.1947 233.285 39.2372C233.056 39.2655 232.836 39.3701 232.669 39.5845C232.468 39.8418 232.311 40.1325 232.153 40.4232C230.91 42.9017 229.576 45.275 227.866 47.4237C227.058 48.4147 226.165 49.3388 225.229 50.2294C224.957 50.5343 224.59 50.696 224.155 50.9434C223.537 49.7026 223.238 48.5385 223.092 47.3556C222.945 46.1726 222.952 44.9707 222.925 43.8118ZM223.781 41.9624L223.17 42.0379C222.925 40.0536 224.403 36.345 225.754 35.6743C225.773 35.8269 225.825 35.9367 225.844 36.0893L225.853 36.1657C225.703 38.0827 225.071 39.8656 224.354 41.5816C224.234 41.8676 224.01 41.9341 223.781 41.9624ZM235.596 50.342L235.549 49.9604C235.365 48.4721 235.067 46.998 234.878 45.4716C234.835 45.1282 234.826 44.7419 234.779 44.3603C234.347 39.2995 233.953 34.234 233.673 29.1544C233.449 25.7727 233.491 22.358 233.772 18.9912C233.917 17.346 234.101 15.6961 234.284 14.0461C234.308 13.9269 234.294 13.8125 234.28 13.698C234.233 13.3164 234.038 12.9918 233.699 12.7625C233.48 12.5571 233.232 12.4328 232.98 12.2703C232.689 12.1125 232.484 12.0216 232.293 12.0452C232.026 12.0783 231.854 12.2545 231.749 12.655C231.447 13.6609 231.226 14.6956 231.044 15.7255C231.015 15.8065 231.024 15.8829 231.034 15.9592C231.057 16.15 231.115 16.2979 231.2 16.3648C231.41 16.4938 231.505 16.637 231.524 16.7897C231.538 16.9042 231.519 17.0615 231.495 17.1807C231.176 20.5522 231.167 23.924 231.272 27.2817C231.513 32.9861 231.906 38.6716 232.566 44.324L232.679 45.2399C232.84 46.5373 233.034 47.7919 233.228 49.0464C233.294 49.5807 233.775 50.0248 234.285 50.078C234.362 50.0685 234.424 49.9446 234.529 49.8541C234.686 50.1834 234.914 50.4651 235.372 50.4085C235.449 50.399 235.52 50.3514 235.596 50.342ZM236.109 52.2933C235.966 52.3885 235.784 52.4884 235.632 52.5073C235.441 52.5309 235.274 52.4353 235.117 52.106C235.113 52.0678 234.912 52.0151 234.76 52.034C234.683 52.0434 234.645 52.0481 234.65 52.0863C234.354 52.5104 234.062 52.9726 233.89 53.4589C233.828 53.5828 233.77 53.7449 233.789 53.8975C233.808 54.0502 233.903 54.1934 234.108 54.2842C234.761 54.5522 235.414 54.8201 236.091 54.9688C236.21 54.9928 236.33 55.0168 236.406 55.0074C236.711 54.9696 236.878 54.7552 236.869 54.3689C236.875 54.097 236.88 53.8252 236.847 53.5581C236.795 53.1383 236.619 52.6564 236.109 52.2933Z" fill="black"/>
<defs>
<clipPath id="clip0">
<rect width="40" height="40" fill="white" transform="translate(240.839 9.61768) rotate(-7.92047)"/>
</clipPath>
</defs>
</svg>
