<svg width="542" height="469" viewBox="0 0 542 469" fill="none" xmlns="http://www.w3.org/2000/svg">
<g filter="url(#filter0_f)">
<rect width="396" height="102.194" transform="matrix(1 0 0 -1 73 396)" fill="#FEF4FC"/>
<rect width="396" height="102.194" transform="matrix(1 0 0 -1 73 319.949)" fill="#FEFEF4"/>
<rect width="396" height="102.194" transform="matrix(1 0 0 -1 73 247.462)" fill="#F4FEF7"/>
<rect width="396" height="102.194" transform="matrix(1 0 0 -1 73 174.975)" fill="#F8FEFF"/>
</g>
<g clip-path="url(#clip0)">
<path d="M340.161 185.377C325.008 165.851 304.122 155.464 281.194 154.693C280.417 154.321 279.56 154.01 278.532 153.867C222.314 145.941 170.672 196.327 178.259 253.195C184.39 299.127 228.938 325.999 272.68 318.942C311.369 312.704 351.336 285.011 358.307 244.302C362.06 222.389 353.351 202.382 340.161 185.377ZM339.556 245.335C333.158 273.813 303.831 292.515 277.476 299.476C246.004 307.786 215.927 295.629 200.992 266.581C180.358 226.456 215.354 178.352 256.326 171.701C258.322 173.774 261.263 174.964 264.847 174.197C304.821 165.635 349.015 203.24 339.556 245.335Z" fill="#181818"/>
<path d="M161.266 101.497C153.338 92.7831 140.476 105.72 148.37 114.394C158.524 125.552 167.371 137.676 176.125 149.937C182.898 159.42 198.728 150.325 191.874 140.731C182.221 127.224 172.458 113.795 161.266 101.497Z" fill="#181818"/>
<path d="M283.403 117.065C284.222 100.605 283.063 84.3748 280.34 68.1298C278.402 56.5492 260.827 61.4749 262.751 72.978C265.199 87.5969 265.895 102.264 265.16 117.061C264.576 128.826 282.819 128.77 283.403 117.065Z" fill="#181818"/>
<path d="M376.352 117.914C365.1 127.338 354.212 137.178 342.611 146.182C338.675 149.237 339.426 155.896 342.611 159.08C346.452 162.922 351.588 162.126 355.508 159.08C367.104 150.071 377.996 140.235 389.248 130.81C398.279 123.249 385.302 110.415 376.352 117.914Z" fill="#181818"/>
<path d="M145.701 224.673C128.341 222.778 111.077 220.186 93.7172 218.289C82.0333 217.014 82.1554 235.265 93.7172 236.527C111.077 238.42 128.341 241.017 145.701 242.91C157.381 244.187 157.262 225.935 145.701 224.673Z" fill="#181818"/>
<path d="M173.012 324.408C155.61 337.19 137.933 349.589 120.122 361.797C110.488 368.399 119.598 384.213 129.328 377.542C147.139 365.334 164.816 352.939 182.218 340.153C191.591 333.273 182.508 317.431 173.012 324.408Z" fill="#181818"/>
<path d="M253.305 343.225C253.373 361.469 254.15 379.696 254.218 397.939C254.261 409.7 272.5 409.704 272.458 397.939C272.389 379.7 271.609 361.469 271.544 343.225C271.502 331.464 253.263 331.46 253.305 343.225Z" fill="#181818"/>
<path d="M357.332 303.947C348.569 296.167 335.624 309.018 344.435 316.843C359.719 330.42 374.202 344.819 388.208 359.704C396.282 368.287 409.155 355.363 401.103 346.808C387.099 331.924 372.615 317.52 357.332 303.947Z" fill="#181818"/>
<path d="M448.46 221.937C427.479 221.937 406.505 222.007 385.539 222.849C373.817 223.319 373.774 241.56 385.539 241.086C406.505 240.245 427.479 240.18 448.46 240.172C460.221 240.172 460.221 221.937 448.46 221.937Z" fill="#181818"/>
<path d="M246.732 213.925C243.93 213.925 241.655 211.775 241.655 209.123C241.655 207.463 240.229 206.114 238.476 206.114C236.723 206.114 235.295 207.463 235.295 209.123C235.295 211.775 233.022 213.925 230.217 213.925C227.413 213.925 225.14 211.775 225.14 209.123C225.14 202.168 231.122 196.511 238.476 196.511C245.828 196.511 251.81 202.168 251.81 209.123C251.81 211.775 249.537 213.925 246.732 213.925Z" fill="#181818"/>
<path d="M312.931 213.925C310.126 213.925 307.854 211.775 307.854 209.123C307.854 207.463 306.428 206.115 304.674 206.115C302.919 206.115 301.493 207.463 301.493 209.123C301.493 211.775 299.22 213.925 296.416 213.925C293.611 213.925 291.339 211.775 291.339 209.123C291.339 202.168 297.32 196.511 304.674 196.511C312.026 196.511 318.008 202.168 318.008 209.123C318.008 211.775 315.735 213.925 312.931 213.925Z" fill="#181818"/>
<path d="M271.575 275.508C255.592 275.508 242.591 263.213 242.591 248.097C242.591 245.447 244.864 243.296 247.669 243.296C250.473 243.296 252.746 245.447 252.746 248.097C252.746 257.918 261.193 265.905 271.575 265.905C281.958 265.905 290.405 257.916 290.405 248.097C290.405 245.447 292.678 243.296 295.482 243.296C298.286 243.296 300.559 245.447 300.559 248.097C300.559 263.213 287.557 275.508 271.575 275.508Z" fill="#181818"/>
</g>
<defs>
<filter id="filter0_f" x="0.8125" y="0.593719" width="540.375" height="467.594" filterUnits="userSpaceOnUse" color-interpolation-filters="sRGB">
<feFlood flood-opacity="0" result="BackgroundImageFix"/>
<feBlend mode="normal" in="SourceGraphic" in2="BackgroundImageFix" result="shape"/>
<feGaussianBlur stdDeviation="36.0938" result="effect1_foregroundBlur"/>
</filter>
<clipPath id="clip0">
<rect width="372.281" height="372.281" fill="white" transform="translate(85 48)"/>
</clipPath>
</defs>
</svg>
