<svg width="396" height="279" viewBox="0 0 396 279" fill="none" xmlns="http://www.w3.org/2000/svg">
<path d="M379.538 107.654C387.341 165.337 347.529 235.902 247.944 249.374C148.358 262.845 27.0569 249.387 19.2538 191.704C11.4508 134.021 38.985 44.098 138.57 30.6267C238.156 17.1554 371.735 49.9705 379.538 107.654Z" fill="#F9F9FF"/>
<path opacity="0.8" d="M63.6304 141.82C63.7073 141.704 63.8226 141.589 63.8226 141.474V139.59C63.8226 138.936 63.8226 138.321 63.7842 137.705C63.7457 137.013 63.2459 136.513 62.5922 136.244C62.3615 136.129 62.1308 136.09 61.9385 136.09C61.5156 136.09 61.208 136.398 61.0542 137.013C60.9004 137.744 60.785 138.513 60.7081 139.282C60.6696 139.666 60.6696 140.051 60.6696 140.435C60.6696 141.897 60.8619 143.319 61.208 144.742C61.4002 145.319 61.6309 145.895 62.2077 146.28C62.7076 146.588 63.2843 146.895 63.7842 147.203C64.0149 147.357 64.284 147.395 64.5147 147.395C64.7839 147.395 65.0531 147.318 65.2838 147.126C65.8221 146.703 66.3604 146.318 66.7065 145.78C67.5139 144.627 68.283 143.435 68.9751 142.204C69.7056 140.897 70.244 139.474 70.9361 138.128C71.3975 137.244 71.8973 136.36 72.3972 135.514C72.4741 135.36 72.6664 135.245 72.8586 135.052C72.9355 135.437 73.0124 135.744 73.0509 136.014C73.2047 136.975 73.2431 137.898 73.2431 138.859C73.2431 140.397 73.0893 141.973 72.9355 143.512C72.8586 144.127 72.6279 144.55 72.1665 144.934C67.9753 148.395 64.6686 152.586 62.1308 157.392C61.3233 159.007 60.6312 160.661 60.2082 162.429C59.9775 163.198 59.8622 163.967 59.8622 164.775C59.8622 165.083 59.9006 165.429 59.9391 165.775C60.0544 166.736 60.4389 167.62 61.4002 168.043C62.323 168.428 63.2074 168.62 64.0918 168.62C65.3607 168.62 66.5911 168.197 67.7446 167.236C68.8982 166.313 69.7825 165.121 70.5131 163.814C71.5513 161.968 72.2819 159.969 72.8586 157.931C73.8968 154.239 74.5505 150.51 74.9734 146.703C75.0503 146.049 75.281 145.626 75.8194 145.28C76.8191 144.665 77.8188 143.973 78.8185 143.358C79.4338 143.012 80.0874 142.704 80.8564 142.704H81.0102V142.32C81.0102 142.204 81.0102 142.127 80.9718 142.05C80.6642 141.435 80.2028 141.051 79.5107 140.935C79.3953 140.935 79.2415 140.897 79.1261 140.897C78.3571 140.897 77.7035 141.204 77.0498 141.551C76.5499 141.82 76.0501 142.089 75.4348 142.435V141.435C75.4733 140.858 75.4733 140.32 75.4733 139.743C75.4733 138.551 75.3964 137.321 75.1657 136.129C74.9734 135.206 74.6658 134.322 74.0122 133.591C73.4738 133.014 72.8586 132.745 72.2434 132.745C71.5897 132.745 70.9745 133.091 70.4747 133.783C69.8594 134.706 69.3211 135.706 68.8213 136.706C68.1291 138.09 67.5524 139.513 66.8218 140.858C66.1297 142.127 65.2838 143.319 64.4763 144.511C64.2456 144.857 63.8611 145.088 63.5535 145.396C63.2074 144.665 62.9767 143.204 62.9767 142.358C62.9767 142.05 63.0152 141.858 63.0536 141.743C63.2459 141.781 63.4381 141.781 63.6304 141.82ZM72.205 148.395C72.0896 149.241 71.9358 150.01 71.8204 150.74C71.2437 153.778 70.59 156.816 69.5134 159.738C68.9366 161.276 68.283 162.814 67.3601 164.16C66.5911 165.275 65.7452 166.275 64.5532 166.967C64.0918 167.236 63.7457 167.39 63.4381 167.39C62.9383 167.39 62.6306 166.967 62.4768 166.082C62.4384 165.736 62.3999 165.429 62.3999 165.083C62.3999 164.467 62.4768 163.852 62.6691 163.275C63.1305 161.776 63.6304 160.276 64.284 158.853C66.0143 155.124 68.4752 151.855 71.3975 148.933C71.5513 148.779 71.7051 148.625 71.8589 148.51C71.8973 148.472 71.9743 148.472 72.205 148.395ZM73.8584 136.936V137.513H73.8199V136.936H73.8584ZM88.9089 140.858V138.398C88.9089 137.244 88.6782 136.129 88.2168 135.052C87.7554 133.86 86.9479 132.937 85.9097 132.322C85.2945 131.938 84.6409 131.745 84.0256 131.745C83.2951 131.745 82.5645 131.976 81.9108 132.438C79.6422 133.976 78.2964 136.129 77.7197 138.782C77.6428 139.167 77.5659 139.513 77.5659 139.82C77.5659 141.012 78.1811 141.858 79.3731 142.55C79.8729 142.858 80.4112 143.089 80.9496 143.358C80.9111 143.55 80.9111 143.704 80.8727 143.819C80.5266 144.973 80.3728 146.126 80.3728 147.28C80.3728 147.587 80.3728 147.895 80.4112 148.203C80.4881 149.741 81.411 150.625 82.9875 150.933C83.1413 150.971 83.2566 150.971 83.372 150.971C83.8718 150.971 84.2948 150.779 84.6409 150.394C85.0638 149.894 85.4868 149.395 85.8328 148.856C86.8326 147.28 87.5631 145.549 88.063 143.742C88.2168 143.242 88.4475 142.973 88.9858 142.858C90.2547 142.473 91.5236 142.012 92.7925 141.589C92.9847 141.512 93.177 141.435 93.3308 141.358C93.5231 141.243 93.6384 141.128 93.6384 141.012C93.6384 140.897 93.5231 140.781 93.3308 140.666C93.1385 140.551 92.9847 140.435 92.9078 140.282C92.754 140.012 92.5233 139.974 92.2542 139.897C92.1388 139.859 92.0235 139.859 91.9081 139.859C91.6389 139.859 91.3313 139.936 91.0622 140.051C90.3316 140.32 89.6395 140.589 88.9089 140.858ZM85.9866 141.627C85.5637 141.051 85.2176 140.551 84.8331 140.089C84.5255 139.743 84.141 139.59 83.7565 139.59C83.372 139.59 82.9875 139.743 82.6799 140.128C82.18 140.666 81.8339 141.32 81.411 141.973H81.2572C80.2574 141.973 79.9114 141.627 79.9114 140.666V140.512C79.9114 140.128 79.9883 139.743 80.0652 139.397C80.6804 137.359 81.7186 135.629 83.372 134.283C83.7565 133.937 84.1794 133.706 84.6409 133.514C84.8331 133.399 84.9869 133.36 85.1023 133.36C85.333 133.36 85.4483 133.514 85.679 133.822C86.1789 134.668 86.4481 135.591 86.5634 136.552C86.6019 136.975 86.6403 137.398 86.6403 137.821C86.6403 139.013 86.4481 140.166 86.1405 141.281C86.1405 141.397 86.0635 141.474 85.9866 141.627ZM82.6799 148.779C82.6799 148.356 82.6414 148.01 82.6414 147.703C82.6414 147.549 82.6414 147.434 82.6799 147.28C82.8721 146.242 83.1028 145.203 83.3335 144.165C83.4104 143.781 83.6796 143.588 84.1025 143.588H85.2945C85.2945 144.665 83.9103 147.472 82.6799 148.779ZM88.4475 137.398H88.5244C88.486 137.552 88.486 137.705 88.486 137.898C88.486 137.705 88.4475 137.552 88.4475 137.398ZM82.2569 148.779V148.395H82.2953V148.779H82.2569ZM101.349 145.819C100.811 145.165 100.619 144.434 100.503 143.742C100.273 142.204 100.157 140.628 100.004 139.09C99.9267 138.09 99.5421 137.59 98.6193 137.282C98.4271 137.206 98.2348 137.206 98.081 137.206C97.658 137.206 97.3504 137.436 97.1197 137.898L96.7737 138.82C95.7355 141.551 94.6589 144.281 93.6207 147.011C93.5053 147.28 93.3515 147.549 93.1977 147.818C93.0439 147.626 93.0055 147.472 93.0055 147.318C92.9286 145.78 92.8901 144.204 92.8517 142.666C92.8517 142.512 92.8132 142.358 92.8132 142.204C92.8132 141.935 92.8901 141.704 93.3131 141.589C93.39 141.589 93.4284 141.32 93.4284 141.204C93.4284 140.82 93.39 140.435 93.3131 140.051C93.1208 139.128 92.3902 138.551 91.5059 138.551C91.2752 138.551 91.006 138.628 90.7369 138.705C90.6984 138.936 90.6215 139.128 90.583 139.359C90.5446 140.897 90.4677 142.473 90.4677 144.011V144.78C90.5061 145.972 90.7369 147.164 90.9676 148.356C91.2367 149.702 92.2749 150.394 93.6207 150.587C93.736 150.625 93.8129 150.625 93.9283 150.625C94.3897 150.625 94.6973 150.394 94.9665 149.971C95.3125 149.433 95.6201 148.856 95.8893 148.279C96.5045 146.78 97.0813 145.242 97.658 143.742C97.7349 143.55 97.8503 143.396 98.0041 143.127C98.2733 143.858 98.4655 144.511 98.7731 145.088C99.3883 146.395 101.003 147.28 102.426 147.28C102.734 147.28 103.041 147.241 103.31 147.164C105.233 146.549 106.386 145.126 107.04 143.281C107.079 143.204 107.079 143.127 107.079 143.012C107.079 142.819 107.002 142.666 106.809 142.473C106.425 142.089 106.04 141.897 105.579 141.897C105.31 141.897 105.041 141.935 104.771 142.05C104.156 143.781 103.118 145.126 101.349 145.819ZM123.684 135.821C123.722 135.36 123.722 135.052 123.761 134.706C123.876 133.437 123.915 132.168 124.145 130.938C124.145 130.861 124.184 130.746 124.184 130.669C124.184 129.977 123.684 129.554 123.338 129.092C123.184 128.862 122.953 128.785 122.723 128.785C122.492 128.785 122.184 128.862 121.915 128.862C121.8 129.285 121.685 129.669 121.608 130.054C121.531 130.477 121.3 130.9 121.3 131.361C121.3 131.592 121.377 131.861 121.608 132.13C121.646 132.168 121.646 132.245 121.646 132.284C121.531 133.476 121.454 134.629 121.338 135.898C119.8 136.014 118.301 136.09 116.84 136.206C115.34 136.321 113.841 136.36 112.379 136.783C112.379 137.244 112.379 137.667 112.456 138.09C112.533 138.513 112.725 138.897 112.879 139.359C113.148 139.359 113.379 139.436 113.648 139.436C113.879 139.436 114.071 139.359 114.302 139.167C114.456 139.051 114.686 139.051 114.917 139.051L120.916 138.59C121.031 138.59 121.108 138.667 121.3 138.705V139.359C121.3 139.59 121.3 139.82 121.338 140.051C121.454 141.397 121.569 142.742 121.838 144.05C122.069 145.088 123.069 145.703 124.068 145.703C124.222 145.703 124.376 145.703 124.53 145.665C124.299 144.819 123.953 143.973 123.838 143.127C123.646 141.82 123.607 140.474 123.53 139.167C123.53 138.974 123.607 138.782 123.607 138.551C126.299 138.205 128.952 138.59 131.528 138.128C131.759 137.513 131.874 137.167 131.874 136.859C131.874 136.513 131.682 136.244 131.259 135.591C128.76 135.667 126.299 135.744 123.684 135.821ZM179.34 139.474C180.494 139.205 181.571 139.013 182.57 138.82C182.378 138.513 182.186 138.321 182.147 138.09C182.109 137.744 181.917 137.552 181.609 137.475C181.186 137.359 180.725 137.321 180.263 137.282C179.917 137.282 179.571 137.359 179.263 137.436C179.187 137.244 179.148 137.167 179.148 137.09C179.11 136.859 179.11 136.667 179.071 136.475C178.917 134.283 178.84 132.092 178.84 129.938C178.84 124.978 179.263 120.095 180.186 115.212C180.225 114.942 180.263 114.712 180.263 114.481C180.263 113.904 180.071 113.404 179.456 113.058C179.417 113.058 179.34 113.02 179.263 112.981C179.148 113.174 178.994 113.251 178.879 113.251C178.61 113.251 178.341 112.904 178.033 112.751C177.841 113.366 177.649 113.904 177.379 114.673C177.264 114.443 177.226 114.327 177.149 114.212C176.034 112.674 174.572 112.02 172.804 112.02C172.535 112.02 172.304 112.02 172.035 112.059C170.535 112.251 169.112 112.789 167.767 113.443C165.383 114.558 163.229 115.981 161.153 117.557C155.001 122.287 149.656 127.823 145.08 134.091C143.466 136.283 141.966 138.628 140.889 141.166C140.505 142.05 140.197 143.05 139.966 144.011C139.928 144.281 139.89 144.55 139.89 144.819C139.89 145.473 140.043 146.088 140.543 146.588C141.312 147.472 142.197 148.164 143.35 148.472C144.158 148.664 144.927 148.779 145.696 148.779C146.465 148.779 147.195 148.664 147.926 148.51C150.425 147.933 152.924 147.28 155.385 146.549C159.577 145.28 163.691 143.896 167.882 142.589C168.19 142.473 168.459 142.396 168.92 142.281C168.728 142.704 168.651 142.973 168.497 143.242C167.843 144.511 167.228 145.78 166.536 147.011C165.767 148.433 164.96 149.856 164.075 151.202C163.575 152.009 163.076 152.817 162.23 153.317C162.076 153.393 162.037 153.624 161.922 153.778C162.23 154.124 162.499 154.393 162.768 154.662C163.037 154.893 163.345 155.047 163.652 155.047C163.998 155.047 164.306 154.893 164.575 154.624C165.19 153.932 165.806 153.24 166.267 152.471C167.382 150.587 168.459 148.702 169.458 146.78C170.304 145.203 171.073 143.627 171.842 142.012C172.073 141.512 172.419 141.166 172.996 141.051C174.073 140.781 175.149 140.474 176.226 140.166C176.495 140.128 176.726 140.089 177.033 140.051C177.072 140.32 177.11 140.512 177.149 140.705C177.302 142.32 177.456 143.934 177.649 145.549C178.148 149.625 178.764 153.701 179.648 157.7C179.84 158.584 180.148 159.469 180.417 160.315C180.571 160.738 180.801 161.122 181.263 161.161C181.571 161.199 181.878 161.237 182.224 161.237C182.57 161.237 182.955 161.199 183.301 161.084C183.032 160.392 182.724 159.738 182.532 159.046C182.224 157.931 181.917 156.777 181.763 155.662C181.071 151.663 180.417 147.626 179.802 143.588C179.61 142.243 179.494 140.897 179.34 139.474ZM176.495 118.057C176.38 120.902 175.841 123.709 175.111 126.439C173.919 130.746 172.342 134.898 170.535 138.974C170.343 139.397 170.112 139.705 169.651 139.859C163.614 141.743 157.577 143.665 151.54 145.511C149.618 146.088 147.657 146.511 145.696 146.934C145.234 147.011 144.773 147.049 144.35 147.049C143.965 147.049 143.581 147.011 143.235 147.011C142.466 146.972 142.197 146.741 142.197 146.049V145.895C142.274 145.126 142.35 144.357 142.658 143.665C143.273 142.166 143.965 140.666 144.773 139.282C147.272 134.975 150.425 131.169 153.847 127.516C157.154 123.978 160.73 120.71 164.729 117.942C166.498 116.711 168.343 115.596 170.343 114.789C171.419 114.327 172.535 113.943 173.765 113.866C174.073 113.866 174.38 113.866 174.726 113.904C175.341 113.943 175.726 114.25 175.957 114.865C176.38 115.904 176.495 116.98 176.495 118.057ZM176.226 130.707C176.533 131.169 176.841 135.168 176.841 137.552V137.936C175.726 138.205 174.611 138.474 173.419 138.782C174.38 136.014 175.265 133.399 176.226 130.707ZM141.889 145.626V144.896C141.889 144.857 141.927 144.857 141.927 144.857V145.665C141.927 145.665 141.889 145.665 141.889 145.626ZM187.795 141.935C188.487 137.013 188.525 136.975 190.294 132.053C190.717 130.861 191.102 129.631 191.525 128.477C191.64 128.208 191.717 127.939 191.717 127.67C191.717 127.324 191.563 126.978 191.255 126.555C190.871 126.093 190.525 125.824 190.179 125.824C189.871 125.824 189.602 126.055 189.371 126.478C188.718 127.593 188.102 128.746 187.603 129.9C185.488 134.668 184.103 139.705 183.219 144.934C182.681 148.241 182.335 151.586 182.335 154.97C182.335 156.239 182.373 157.508 182.489 158.777C182.758 161.622 183.334 164.429 184.565 167.082C184.757 167.467 184.988 167.928 185.295 168.12C185.872 168.428 186.564 168.658 187.218 168.851C187.41 168.889 187.564 168.928 187.718 168.928C188.448 168.928 188.987 168.505 189.256 167.813C189.679 166.89 190.025 165.967 190.294 165.006C190.756 163.083 190.948 161.084 190.948 159.084C190.948 158.623 190.909 158.2 190.909 157.777C190.717 153.47 189.871 149.318 187.795 145.396C187.679 145.203 187.603 144.973 187.487 144.665C188.602 144.857 189.717 144.973 190.794 144.973C191.755 144.973 192.717 144.857 193.639 144.665C195.6 144.242 197.561 143.819 199.215 142.704C198.753 141.973 198.253 141.589 197.638 141.589C197.369 141.589 197.023 141.666 196.677 141.858C195.37 142.473 193.947 142.896 192.524 143.242C191.486 143.473 190.448 143.627 189.371 143.627C188.218 143.627 187.026 143.435 185.795 143.089C185.911 142.589 186.064 142.05 186.18 141.589C186.757 141.704 187.256 141.82 187.795 141.935ZM185.372 145.396C186.295 146.741 186.833 148.203 187.256 149.664C188.064 152.509 188.487 155.354 188.487 158.2C188.487 160.122 188.295 162.006 187.91 163.929C187.718 164.813 187.41 165.659 187.103 166.505C186.987 166.813 186.795 167.082 186.526 167.543C186.218 166.967 185.949 166.582 185.834 166.198C185.449 164.852 185.026 163.545 184.796 162.199C184.411 160.122 184.296 158.084 184.296 156.047C184.296 154.432 184.373 152.817 184.526 151.24C184.719 149.433 185.026 147.664 185.257 145.895C185.295 145.703 185.334 145.549 185.372 145.396ZM200.497 141.935C201.189 137.013 201.228 136.975 202.996 132.053C203.419 130.861 203.804 129.631 204.227 128.477C204.342 128.208 204.419 127.939 204.419 127.67C204.419 127.324 204.265 126.978 203.958 126.555C203.573 126.093 203.227 125.824 202.881 125.824C202.573 125.824 202.304 126.055 202.074 126.478C201.42 127.593 200.805 128.746 200.305 129.9C198.19 134.668 196.806 139.705 195.921 144.934C195.383 148.241 195.037 151.586 195.037 154.97C195.037 156.239 195.076 157.508 195.191 158.777C195.46 161.622 196.037 164.429 197.267 167.082C197.46 167.467 197.69 167.928 197.998 168.12C198.575 168.428 199.267 168.658 199.92 168.851C200.113 168.889 200.266 168.928 200.42 168.928C201.151 168.928 201.689 168.505 201.958 167.813C202.381 166.89 202.727 165.967 202.996 165.006C203.458 163.083 203.65 161.084 203.65 159.084C203.65 158.623 203.612 158.2 203.612 157.777C203.419 153.47 202.573 149.318 200.497 145.396C200.382 145.203 200.305 144.973 200.19 144.665C201.305 144.857 202.42 144.973 203.496 144.973C204.458 144.973 205.419 144.857 206.342 144.665C208.303 144.242 210.264 143.819 211.917 142.704C211.456 141.973 210.956 141.589 210.341 141.589C210.071 141.589 209.725 141.666 209.379 141.858C208.072 142.473 206.649 142.896 205.227 143.242C204.188 143.473 203.15 143.627 202.074 143.627C200.92 143.627 199.728 143.435 198.498 143.089C198.613 142.589 198.767 142.05 198.882 141.589C199.459 141.704 199.959 141.82 200.497 141.935ZM198.075 145.396C198.998 146.741 199.536 148.203 199.959 149.664C200.766 152.509 201.189 155.354 201.189 158.2C201.189 160.122 200.997 162.006 200.612 163.929C200.42 164.813 200.113 165.659 199.805 166.505C199.69 166.813 199.497 167.082 199.228 167.543C198.921 166.967 198.651 166.582 198.536 166.198C198.152 164.852 197.729 163.545 197.498 162.199C197.113 160.122 196.998 158.084 196.998 156.047C196.998 154.432 197.075 152.817 197.229 151.24C197.421 149.433 197.729 147.664 197.959 145.895C197.998 145.703 198.036 145.549 198.075 145.396ZM223.427 139.974C223.427 139.359 223.12 139.128 222.658 138.936C222.466 138.859 222.312 138.82 222.12 138.82C221.736 138.82 221.39 138.974 221.044 139.128C219.928 139.59 218.775 139.82 217.621 139.859H216.737C216.429 139.859 216.16 139.859 215.853 139.897C214.468 139.936 213.43 140.512 212.815 141.858C212.546 142.435 212.315 143.05 212.046 143.627C211.969 143.742 211.892 143.896 211.815 144.05C211.7 143.819 211.661 143.588 211.661 143.396C211.661 143.281 211.7 143.204 211.7 143.089C211.854 141.512 212.008 139.897 212.161 138.321C212.315 137.013 212.507 135.706 212.623 134.437V134.206C212.623 133.899 212.584 133.63 212.469 133.437C212.277 133.13 211.892 132.899 211.585 132.668C211.469 132.591 211.392 132.553 211.277 132.553C211.008 132.553 210.739 132.745 210.469 132.745H210.354C210.239 133.476 210.123 134.168 210.047 134.822C209.854 136.283 209.624 137.705 209.47 139.167C209.316 140.628 209.239 142.05 209.162 143.512C209.085 144.973 209.047 146.434 208.931 147.933V148.625C208.931 149.779 209.047 150.933 209.085 152.086C209.085 152.432 209.124 152.855 209.201 153.201C209.277 153.624 209.393 154.047 209.508 154.509C209.662 154.624 209.893 154.778 210.123 154.893C210.393 155.047 210.662 155.124 210.892 155.124C211.508 155.124 212.046 154.701 212.2 153.97C212.277 153.509 212.315 153.086 212.43 152.624C212.815 150.625 213.161 148.587 213.699 146.588C214.084 145.126 214.699 143.742 215.314 142.358C215.66 141.512 216.276 141.128 217.237 141.128H217.814C218.506 141.128 219.275 141.051 220.005 140.974C221.159 140.858 222.351 140.551 223.427 139.974ZM226.661 149.664C226.699 148.972 226.661 148.433 226.738 147.933C227.084 146.165 227.468 144.357 227.853 142.589C228.083 141.474 228.391 140.397 228.699 139.32C228.737 139.205 228.737 139.051 228.737 138.936C228.737 138.398 228.468 137.936 228.083 137.552C227.737 137.206 227.391 137.013 227.084 137.013C226.699 137.013 226.353 137.244 226.045 137.667C225.084 139.051 224.2 140.551 223.585 142.166C223.431 142.55 223.315 143.012 223.2 143.435V143.512C223.2 143.781 223.315 144.05 223.546 144.05H223.777C223.969 144.05 223.931 144.204 224.008 144.319C224.084 144.473 224.2 144.703 224.315 144.742C224.738 144.78 224.815 145.011 224.815 145.242C224.815 145.396 224.777 145.511 224.777 145.665C224.7 146.357 224.623 147.049 224.546 147.78C224.546 147.933 224.507 148.087 224.507 148.241C224.507 149.395 224.93 150.356 225.969 151.086C226.622 151.548 227.045 151.778 227.507 151.778C227.853 151.778 228.237 151.625 228.775 151.317C229.352 150.971 229.852 150.548 230.314 150.087C232.659 147.78 234.62 145.088 236.273 142.204C236.389 141.973 236.543 141.666 236.619 141.397C236.658 141.281 236.658 141.204 236.658 141.128C236.658 140.705 236.35 140.397 236.043 140.128C235.889 140.012 235.697 139.859 235.543 139.859C235.389 139.859 235.274 139.936 235.158 140.128C235.005 139.936 234.889 139.782 234.697 139.551C234.389 140.166 234.12 140.743 233.813 141.243C232.467 143.512 230.929 145.588 229.16 147.51C228.66 148.087 228.083 148.587 227.507 149.087C227.314 149.279 227.045 149.433 226.661 149.664ZM225.161 148.51V147.78H225.2V148.51H225.161ZM227.814 129.054C227.66 129.362 227.468 129.631 227.391 129.977C227.084 131.207 226.853 132.476 226.545 133.745C226.507 133.937 226.468 134.091 226.468 134.245C226.468 134.629 226.699 134.783 227.161 134.783H227.314C227.737 135.168 228.122 135.475 228.545 135.821C228.968 134.283 229.352 132.861 229.775 131.476C229.814 131.284 229.852 131.092 229.852 130.938C229.852 130.554 229.737 130.207 229.429 129.9C229.122 129.592 229.045 129.515 227.814 129.054ZM257.475 142.55C257.36 142.358 257.244 142.204 257.129 142.204C257.052 142.204 256.975 142.243 256.898 142.396C256.783 142.589 256.744 142.819 256.706 143.012C256.129 144.588 255.399 146.126 254.36 147.434C254.014 147.895 253.63 148.318 252.938 148.472C252.745 147.818 252.553 147.164 252.399 146.511C252.13 144.973 252.053 143.473 252.053 141.935C252.053 140.858 252.092 139.782 252.13 138.744C252.207 137.359 252.284 135.975 252.399 134.591V134.514C252.399 133.668 251.9 133.13 251.323 132.668C251.054 132.476 250.784 132.361 250.515 132.361C250.054 132.361 249.592 132.63 249.323 133.13C249.054 133.63 248.785 134.129 248.554 134.629C247.016 137.782 245.478 140.974 243.979 144.127L243.517 144.934C243.363 144.742 243.325 144.588 243.325 144.434C243.287 143.55 243.248 142.666 243.171 141.781C243.133 141.204 243.094 140.666 242.902 140.128C242.633 139.205 242.018 138.551 241.095 138.398C240.941 138.359 240.826 138.359 240.672 138.359C239.98 138.359 239.403 138.744 238.98 139.397C238.749 139.782 238.442 140.128 238.249 140.512C237.442 142.012 236.635 143.512 235.827 145.05C235.75 145.203 235.635 145.396 235.519 145.549V145.088C235.519 144.357 235.596 143.665 235.673 142.973C235.827 141.627 236.058 140.282 236.212 138.936C236.212 138.782 236.25 138.59 236.25 138.436C236.25 138.205 236.212 137.975 236.019 137.744C235.519 137.09 235.25 136.859 234.673 136.859C234.404 136.859 234.097 136.898 233.712 136.975C233.674 137.244 233.635 137.513 233.597 137.821C233.558 138.628 233.558 139.436 233.482 140.282C233.251 142.166 232.982 144.088 232.828 145.972C232.789 146.549 232.751 147.164 232.751 147.741C232.751 148.356 232.789 148.933 232.789 149.51C232.789 149.856 233.02 150.24 233.212 150.51C233.366 150.702 233.635 150.817 233.828 150.971C234.097 151.202 234.443 151.317 234.827 151.317C235.366 151.317 235.865 151.086 236.135 150.587C236.519 149.894 236.788 149.164 237.173 148.433C238.173 146.357 239.172 144.281 240.21 142.243C240.287 142.012 240.48 141.858 240.595 141.666C240.672 141.666 240.71 141.704 240.787 141.704C240.826 143.204 240.864 144.703 240.903 146.242C240.941 146.78 240.979 147.357 241.095 147.895C241.133 148.126 241.326 148.356 241.479 148.549C241.672 148.741 241.941 148.895 242.171 149.048C242.479 149.279 242.825 149.395 243.171 149.395C243.709 149.395 244.248 149.125 244.555 148.625C244.978 147.972 245.324 147.28 245.67 146.588C246.862 144.127 248.016 141.666 249.208 139.167C249.323 138.974 249.477 138.782 249.592 138.551C249.708 138.82 249.708 139.013 249.708 139.243C249.669 140.012 249.631 140.781 249.631 141.551C249.631 143.012 249.746 144.434 249.977 145.857C250.208 147.357 250.631 148.779 252.207 149.548C252.784 149.817 253.361 149.933 253.937 149.933C254.822 149.933 255.629 149.625 256.283 148.933C257.821 147.28 258.667 145.242 259.359 143.204C258.782 142.435 258.167 142.012 257.859 142.012H257.783C257.667 142.166 257.59 142.32 257.475 142.55ZM295.773 131.63C295.735 131.361 295.696 131.207 295.658 131.015C295.542 129.938 295.235 129.592 294.235 129.592H294.043C293.197 129.669 292.312 129.746 291.428 129.9L280.7 131.861C280.47 131.938 280.239 131.938 279.893 131.976C280.047 131.515 280.124 131.169 280.277 130.823C281.546 127.785 282.892 124.747 284.161 121.71C284.353 121.287 284.468 120.864 284.584 120.441C284.622 120.326 284.622 120.21 284.622 120.095C284.622 119.787 284.507 119.518 284.276 119.287C284.161 119.172 284.046 118.98 283.93 118.826C283.661 118.441 283.353 118.249 283.046 118.249C282.738 118.249 282.469 118.441 282.2 118.864C281.777 119.595 281.392 120.364 281.008 121.133C279.47 124.517 278.201 128.016 277.009 131.515C276.894 131.822 276.817 132.092 276.663 132.361C276.548 132.515 276.355 132.707 276.163 132.745C275.048 132.976 273.971 133.168 272.895 133.399C272.51 132.822 272.203 132.322 271.78 131.745C269.78 132.515 267.781 133.245 265.781 133.976C265.512 134.091 265.32 134.36 265.32 134.629C265.32 134.706 265.32 134.783 265.358 134.86C265.512 135.206 265.743 135.552 265.974 135.898C266.204 136.244 266.55 136.321 266.896 136.321C267.089 136.321 267.242 136.321 267.435 136.283C269.742 135.975 272.087 135.629 274.433 135.283C274.74 135.245 275.048 135.168 275.432 135.129C275.356 135.36 275.356 135.475 275.317 135.552C273.894 138.513 272.356 141.397 270.395 144.05C269.934 144.703 269.357 145.28 268.819 145.857C268.434 146.28 267.973 146.588 267.281 146.703C267.05 146.088 266.819 145.511 266.666 144.896C266.32 143.742 266.012 142.55 265.781 141.358C265.397 139.436 264.166 137.975 263.013 136.513C262.897 136.321 262.705 136.206 262.551 136.129C262.09 135.86 261.667 135.744 261.244 135.744C260.783 135.744 260.283 135.898 259.821 136.283C258.552 137.282 257.668 138.551 256.938 139.974C255.669 142.55 254.9 145.28 254.4 148.126C254.361 148.395 254.323 148.625 254.323 148.856C254.323 149.587 254.592 150.125 255.284 150.663C255.707 151.009 256.092 151.163 256.399 151.163C256.784 151.163 257.091 150.971 257.437 150.51C257.976 149.741 258.476 148.972 258.899 148.164C259.975 146.242 261.013 144.281 262.052 142.32C262.205 142.05 262.398 141.781 262.59 141.435C262.936 141.704 263.128 142.05 263.397 142.089C264.089 142.281 264.243 142.781 264.359 143.319C264.474 143.781 264.628 144.242 264.743 144.703C265.089 145.857 265.704 146.818 266.666 147.626C267.358 148.203 268.05 148.51 268.704 148.51C269.357 148.51 270.011 148.241 270.665 147.626C271.357 146.972 271.972 146.165 272.587 145.434C272.779 145.203 272.933 144.973 273.125 144.742C273.164 144.78 273.202 144.78 273.202 144.819C273.202 145.011 273.164 145.203 273.125 145.396C272.433 148.702 271.703 152.009 271.011 155.354C270.434 158.354 269.934 161.353 269.742 164.39V164.852C269.742 165.39 269.78 165.928 269.896 166.39C270.165 167.313 270.78 167.966 271.703 168.312C271.78 168.351 271.857 168.351 271.933 168.351H272.049C272.433 168.351 272.818 167.928 272.818 167.582V167.543C272.779 167.197 272.587 167.159 272.395 167.159H272.087C272.049 167.159 271.972 167.12 271.933 167.082C271.933 166.89 271.972 166.697 271.972 166.544V166.428C271.933 166.005 271.818 165.621 271.818 165.236C271.895 164.198 271.972 163.198 272.126 162.237C273.395 153.586 275.356 145.088 277.816 136.744C278.009 136.129 278.239 135.552 278.432 134.975C278.547 134.629 278.778 134.437 279.124 134.399L280.969 134.053C285.622 133.207 290.275 132.13 295.043 131.822C295.273 131.822 295.504 131.707 295.773 131.63ZM257.822 144.78C258.399 142.473 259.36 140.397 260.975 138.667C261.013 138.705 261.052 138.744 261.129 138.782C260.014 140.781 258.899 142.781 257.822 144.78ZM281.665 149.664C281.704 148.972 281.665 148.433 281.742 147.933C282.088 146.165 282.473 144.357 282.857 142.589C283.088 141.474 283.395 140.397 283.703 139.32C283.742 139.205 283.742 139.051 283.742 138.936C283.742 138.398 283.472 137.936 283.088 137.552C282.742 137.206 282.396 137.013 282.088 137.013C281.704 137.013 281.358 137.244 281.05 137.667C280.089 139.051 279.204 140.551 278.589 142.166C278.435 142.55 278.32 143.012 278.205 143.435V143.512C278.205 143.781 278.32 144.05 278.551 144.05H278.781C278.974 144.05 278.935 144.204 279.012 144.319C279.089 144.473 279.204 144.703 279.32 144.742C279.743 144.78 279.82 145.011 279.82 145.242C279.82 145.396 279.781 145.511 279.781 145.665C279.704 146.357 279.627 147.049 279.55 147.78C279.55 147.933 279.512 148.087 279.512 148.241C279.512 149.395 279.935 150.356 280.973 151.086C281.627 151.548 282.05 151.778 282.511 151.778C282.857 151.778 283.242 151.625 283.78 151.317C284.357 150.971 284.857 150.548 285.318 150.087C287.664 147.78 289.625 145.088 291.278 142.204C291.393 141.973 291.547 141.666 291.624 141.397C291.662 141.281 291.662 141.204 291.662 141.128C291.662 140.705 291.355 140.397 291.047 140.128C290.893 140.012 290.701 139.859 290.547 139.859C290.394 139.859 290.278 139.936 290.163 140.128C290.009 139.936 289.894 139.782 289.701 139.551C289.394 140.166 289.125 140.743 288.817 141.243C287.471 143.512 285.933 145.588 284.164 147.51C283.665 148.087 283.088 148.587 282.511 149.087C282.319 149.279 282.05 149.433 281.665 149.664ZM280.166 148.51V147.78H280.204V148.51H280.166ZM282.819 129.054C282.665 129.362 282.473 129.631 282.396 129.977C282.088 131.207 281.857 132.476 281.55 133.745C281.511 133.937 281.473 134.091 281.473 134.245C281.473 134.629 281.704 134.783 282.165 134.783H282.319C282.742 135.168 283.126 135.475 283.549 135.821C283.972 134.283 284.357 132.861 284.78 131.476C284.818 131.284 284.857 131.092 284.857 130.938C284.857 130.554 284.741 130.207 284.434 129.9C284.126 129.592 284.049 129.515 282.819 129.054ZM324.284 142.127C324.13 141.82 324.092 141.551 323.938 141.358C323.784 141.204 323.63 141.166 323.476 141.166C323.207 141.166 323.015 141.358 322.9 141.743C322.592 142.704 322.208 143.588 321.554 144.319C320.785 145.165 319.862 145.742 318.632 145.819H318.401C317.593 145.819 316.978 145.473 316.594 144.742C316.286 144.165 316.055 143.55 315.863 142.935C315.594 141.935 315.402 140.935 315.133 139.936C314.94 139.051 314.479 138.359 313.825 137.782C313.441 137.436 313.056 137.282 312.672 137.282C312.287 137.282 311.903 137.475 311.518 137.936C310.941 138.59 310.403 139.32 309.903 140.051C308.98 141.435 308.096 142.858 307.173 144.281C307.058 144.473 306.904 144.588 306.75 144.742C306.943 143.319 307.289 141.935 307.596 140.551C307.827 139.59 308.019 138.59 308.173 137.629C308.211 137.513 308.211 137.359 308.211 137.244C308.211 135.937 307.019 134.668 305.943 134.552C305.789 134.514 305.597 134.514 305.404 134.514C305.058 134.514 304.674 134.591 304.328 134.706C302.444 135.321 300.598 135.975 298.714 136.629C298.406 136.744 298.06 136.859 297.753 136.975C297.676 136.859 297.676 136.821 297.676 136.821C297.637 136.475 297.599 136.129 297.599 135.744C297.484 133.783 296.791 132.053 295.33 130.707C294.523 129.977 293.792 129.631 293.1 129.631C292.331 129.631 291.639 130.092 290.947 130.938C289.64 132.515 288.832 134.36 288.409 136.321C288.371 136.629 288.332 136.936 288.332 137.282C288.332 137.705 288.409 138.128 288.64 138.474C288.832 138.705 288.871 138.936 288.871 139.167C288.871 139.397 288.832 139.628 288.717 139.897C288.178 141.397 287.832 142.973 287.832 144.55V144.819C287.909 146.357 288.524 147.549 289.793 148.318C290.447 148.702 290.947 148.972 291.408 148.972C291.908 148.972 292.37 148.702 292.985 148.164C293.677 147.51 294.254 146.703 294.792 145.895C295.869 144.204 296.522 142.281 297.061 140.359C297.137 139.936 297.291 139.666 297.714 139.513C300.252 138.628 302.79 137.705 305.289 136.821C305.481 136.744 305.674 136.744 305.981 136.667C305.943 137.052 305.904 137.398 305.827 137.705C305.558 138.936 305.212 140.166 304.982 141.397C304.597 143.127 304.251 144.857 303.982 146.626C303.982 146.741 303.943 146.895 303.943 147.011C303.943 147.972 304.482 148.625 305.443 149.048C305.827 149.241 306.058 149.318 306.289 149.318C306.558 149.318 306.789 149.125 307.173 148.664C307.481 148.318 307.788 147.933 308.058 147.549C308.942 146.242 309.788 144.934 310.672 143.665C311.326 142.627 312.018 141.627 312.672 140.628C312.826 140.435 313.018 140.243 313.248 139.974C313.441 140.705 313.595 141.32 313.748 141.897C314.21 143.704 315.094 145.242 316.594 146.357C317.593 147.126 318.709 147.664 319.939 147.664C320.208 147.664 320.477 147.626 320.785 147.587C322.9 147.164 324.822 145.05 325.091 142.896C325.091 142.704 324.976 142.473 324.899 142.281C324.822 142.127 324.707 142.089 324.592 142.089C324.476 142.089 324.361 142.127 324.284 142.127ZM290.216 146.895C290.101 146.318 290.024 145.78 290.024 145.242C290.024 143.665 290.524 142.166 291.062 140.666H294.407C293.485 143.089 292.523 145.434 290.216 146.895ZM292.216 138.667C292.293 138.436 292.408 138.321 292.523 138.321C292.677 138.321 292.793 138.398 292.985 138.474C292.639 138.59 292.446 138.628 292.216 138.667ZM295.292 137.475C295.215 137.744 295.1 137.936 294.792 138.013L293.292 138.474C292.946 137.129 292.177 136.36 291.178 136.014C291.37 134.322 293.177 131.938 294.523 131.592C294.946 132.053 295.1 132.668 295.253 133.245C295.407 133.937 295.484 134.629 295.484 135.283C295.484 136.014 295.407 136.744 295.292 137.475ZM329.834 144.473C330.026 143.473 330.18 142.512 330.18 141.627C330.18 140.858 330.065 140.128 329.757 139.397C329.104 137.898 328.027 137.09 326.796 137.09C325.989 137.09 325.105 137.475 324.259 138.205C322.874 139.397 322.029 140.935 321.644 142.742C321.567 143.165 321.49 143.588 321.49 143.973C321.49 145.242 321.99 146.434 322.951 147.472C323.759 148.395 324.682 149.164 325.758 149.741C325.989 149.894 326.181 150.048 326.412 150.202C325.874 150.971 325.374 151.702 324.874 152.432C323.528 154.47 322.259 156.585 321.375 158.853C321.029 159.699 320.798 160.622 320.644 161.507C320.644 161.622 320.606 161.737 320.606 161.853C320.606 162.468 320.875 163.045 321.49 163.429C322.49 164.044 323.528 164.39 324.643 164.39C325.105 164.39 325.566 164.314 326.066 164.198C329.334 163.275 331.68 161.237 332.872 158.008C333.141 157.277 333.295 156.546 333.295 155.816C333.295 154.547 332.833 153.393 331.872 152.317C331.411 151.778 330.834 151.317 330.334 150.856C330.103 150.663 329.911 150.548 329.603 150.356C331.872 147.51 334.179 144.703 336.832 142.281C336.717 142.089 336.678 141.897 336.563 141.781C336.063 141.204 335.602 140.858 335.14 140.858C334.794 140.858 334.41 141.051 333.987 141.474C333.679 141.781 333.333 142.05 333.026 142.396C331.257 144.434 329.526 146.472 327.758 148.51C327.565 148.702 327.412 148.933 327.143 149.202C326.412 148.741 325.681 148.318 325.028 147.856C324.182 147.28 323.759 146.395 323.759 145.434V145.319C323.759 142.781 324.835 140.82 326.873 139.397C327.143 139.205 327.489 139.167 327.873 139.013C327.95 139.474 327.988 139.897 327.988 140.359C327.988 141.204 327.873 142.012 327.796 142.781C327.988 142.896 328.258 142.973 328.258 143.089C328.373 143.934 329.18 143.934 329.834 144.473ZM323.259 162.814C323.182 162.622 323.144 162.391 323.144 162.199C323.144 161.891 323.221 161.583 323.297 161.276C323.605 160.392 323.913 159.507 324.336 158.661C325.489 156.239 326.95 153.97 328.527 151.817C328.642 151.663 328.757 151.548 328.873 151.432C330.296 152.048 331.065 153.124 331.065 154.547C331.065 154.893 330.988 155.239 330.911 155.624C330.334 158.2 328.873 160.161 326.604 161.545C325.451 162.276 324.182 162.737 323.259 162.814Z" fill="black"/>
</svg>
